# xmcd
#
# Track frame offsets: 
#        150
#        22426
#        47064
#        68995
#        98807
#        126810
#        150414
#        163070
#        197159
#        220478
#        247264
#
# Disc length: 3632 seconds
#
# Revision: 1
# Processed by: cddbd v1.5.2PL0 Copyright (c) Steve Scherf et al.
# Submitted via: ExactAudioCopy v1.0b3
#
DISCID=a60e2e0b
DTITLE=EGO-WRAPPIN' - ON THE ROCKS!
DYEAR=2006
DGENRE=Jazz
TTITLE0=天国と白いピエロ 
TTITLE1=ニュースタイム 
TTITLE2=Mother Ship
TTITLE3=ロッテンマリー 
TTITLE4=マスターdog 
TTITLE5=Sundance
TTITLE6=The Ruling Class
TTITLE7=レモン 
TTITLE8=水中ゲーム 
TTITLE9=旅先案内人 
TTITLE10=inner bell
EXTD=YEAR: 2006
EXTT0=
EXTT1=
EXTT2=
EXTT3=
EXTT4=
EXTT5=
EXTT6=
EXTT7=
EXTT8=
EXTT9=
EXTT10=
PLAYORDER=
